<mxfile host="app.diagrams.net" agent="Mozilla/5.0 (Macintosh; Intel Mac OS X 10_15_7) AppleWebKit/537.36 (KHTML, like Gecko) Chrome/129.0.0.0 Safari/537.36" version="24.7.17">
  <diagram id="C5RBs43oDa-KdzZeNtuy" name="Page-1">
    <mxGraphModel dx="1434" dy="881" grid="1" gridSize="10" guides="1" tooltips="1" connect="1" arrows="1" fold="1" page="1" pageScale="1" pageWidth="827" pageHeight="1169" math="0" shadow="0">
      <root>
        <mxCell id="WIyWlLk6GJQsqaUBKTNV-0" />
        <mxCell id="WIyWlLk6GJQsqaUBKTNV-1" parent="WIyWlLk6GJQsqaUBKTNV-0" />
        <mxCell id="HNseLsLBakEeqUfx-rle-89" style="edgeStyle=orthogonalEdgeStyle;rounded=0;orthogonalLoop=1;jettySize=auto;html=1;entryX=0;entryY=0.5;entryDx=0;entryDy=0;" edge="1" parent="WIyWlLk6GJQsqaUBKTNV-1" source="WIyWlLk6GJQsqaUBKTNV-3" target="HNseLsLBakEeqUfx-rle-95">
          <mxGeometry relative="1" as="geometry" />
        </mxCell>
        <mxCell id="HNseLsLBakEeqUfx-rle-98" style="edgeStyle=orthogonalEdgeStyle;rounded=0;orthogonalLoop=1;jettySize=auto;html=1;entryX=0;entryY=0.5;entryDx=0;entryDy=0;" edge="1" parent="WIyWlLk6GJQsqaUBKTNV-1" source="WIyWlLk6GJQsqaUBKTNV-3" target="lwHccidv2fWYTVkOevZk-39">
          <mxGeometry relative="1" as="geometry" />
        </mxCell>
        <mxCell id="HNseLsLBakEeqUfx-rle-99" style="edgeStyle=orthogonalEdgeStyle;rounded=0;orthogonalLoop=1;jettySize=auto;html=1;entryX=0;entryY=0.5;entryDx=0;entryDy=0;" edge="1" parent="WIyWlLk6GJQsqaUBKTNV-1" source="WIyWlLk6GJQsqaUBKTNV-3" target="Aem0WX8BvzpRNGFWT9OV-11">
          <mxGeometry relative="1" as="geometry" />
        </mxCell>
        <mxCell id="WIyWlLk6GJQsqaUBKTNV-3" value="&lt;div style=&quot;line-height: 18px;&quot;&gt;GameFSM&lt;span style=&quot;font-family: Menlo, Monaco, &amp;quot;Courier New&amp;quot;, monospace; white-space: pre;&quot;&gt;:&lt;br&gt; FSMUpdateBase&amp;lt;GameStates&amp;gt;&lt;/span&gt;&lt;/div&gt;" style="rounded=1;whiteSpace=wrap;html=1;fontSize=12;glass=0;strokeWidth=1;shadow=0;" parent="WIyWlLk6GJQsqaUBKTNV-1" vertex="1">
          <mxGeometry x="10" y="100" width="240" height="40" as="geometry" />
        </mxCell>
        <mxCell id="lwHccidv2fWYTVkOevZk-2" value="&lt;div&gt;&lt;span style=&quot;background-color: initial;&quot;&gt;{ GameState.Preload, new Preload }&lt;br&gt;{ GameState.Lobby, new Lobby }&lt;/span&gt;&lt;br&gt;&lt;/div&gt;&lt;div&gt;{ States.&lt;b&gt;Play&lt;/b&gt;, new &lt;b&gt;Play&lt;/b&gt; } - need name&lt;/div&gt;" style="rounded=0;whiteSpace=wrap;html=1;align=left;" parent="WIyWlLk6GJQsqaUBKTNV-1" vertex="1">
          <mxGeometry x="10" y="140" width="210" height="80" as="geometry" />
        </mxCell>
        <mxCell id="lwHccidv2fWYTVkOevZk-38" style="edgeStyle=orthogonalEdgeStyle;rounded=0;orthogonalLoop=1;jettySize=auto;html=1;entryX=0.5;entryY=0;entryDx=0;entryDy=0;exitX=1;exitY=0.25;exitDx=0;exitDy=0;" parent="WIyWlLk6GJQsqaUBKTNV-1" source="lwHccidv2fWYTVkOevZk-39" target="Aem0WX8BvzpRNGFWT9OV-1" edge="1">
          <mxGeometry relative="1" as="geometry" />
        </mxCell>
        <mxCell id="lwHccidv2fWYTVkOevZk-39" value="&lt;div&gt;Lobby&lt;/div&gt;" style="rounded=1;whiteSpace=wrap;html=1;glass=0;strokeWidth=1;shadow=0;fillColor=#d5e8d4;strokeColor=#82b366;" parent="WIyWlLk6GJQsqaUBKTNV-1" vertex="1">
          <mxGeometry x="311" y="190" width="120" height="20" as="geometry" />
        </mxCell>
        <mxCell id="3Ym4WqY_hZjeNqFPl6Wv-34" style="edgeStyle=orthogonalEdgeStyle;rounded=0;orthogonalLoop=1;jettySize=auto;html=1;exitX=1;exitY=0.5;exitDx=0;exitDy=0;entryX=0.5;entryY=0;entryDx=0;entryDy=0;" parent="WIyWlLk6GJQsqaUBKTNV-1" source="Aem0WX8BvzpRNGFWT9OV-1" target="3Ym4WqY_hZjeNqFPl6Wv-31" edge="1">
          <mxGeometry relative="1" as="geometry" />
        </mxCell>
        <mxCell id="3Ym4WqY_hZjeNqFPl6Wv-56" style="edgeStyle=orthogonalEdgeStyle;rounded=0;orthogonalLoop=1;jettySize=auto;html=1;exitX=1;exitY=0.5;exitDx=0;exitDy=0;entryX=0.5;entryY=0;entryDx=0;entryDy=0;" parent="WIyWlLk6GJQsqaUBKTNV-1" source="Aem0WX8BvzpRNGFWT9OV-1" target="3Ym4WqY_hZjeNqFPl6Wv-55" edge="1">
          <mxGeometry relative="1" as="geometry" />
        </mxCell>
        <mxCell id="Aem0WX8BvzpRNGFWT9OV-1" value="&lt;div style=&quot;line-height: 18px;&quot;&gt;LobbySubFSM&lt;span style=&quot;font-family: Menlo, Monaco, &amp;quot;Courier New&amp;quot;, monospace; white-space: pre;&quot;&gt;: &lt;br&gt;StateMachineBase&amp;lt;LobbyStates&amp;gt;&lt;/span&gt;&lt;/div&gt;" style="rounded=1;whiteSpace=wrap;html=1;fontSize=12;glass=0;strokeWidth=1;shadow=0;" parent="WIyWlLk6GJQsqaUBKTNV-1" vertex="1">
          <mxGeometry x="376" y="220" width="240" height="40" as="geometry" />
        </mxCell>
        <mxCell id="Aem0WX8BvzpRNGFWT9OV-8" value="&lt;div&gt;{&amp;nbsp;&lt;span style=&quot;font-family: Menlo, Monaco, &amp;quot;Courier New&amp;quot;, monospace; white-space: pre;&quot;&gt;LobbySubStates&lt;/span&gt;.Book, new BookSubState }&lt;br&gt;&lt;/div&gt;&lt;div&gt;{&amp;nbsp;&lt;span style=&quot;font-family: Menlo, Monaco, &amp;quot;Courier New&amp;quot;, monospace; white-space: pre;&quot;&gt;Lobby&lt;/span&gt;&lt;span style=&quot;font-family: Menlo, Monaco, &amp;quot;Courier New&amp;quot;, monospace; white-space: pre;&quot;&gt;SubStates&lt;/span&gt;.Profile, new ProfileSubState }&lt;/div&gt;" style="rounded=0;whiteSpace=wrap;html=1;align=left;" parent="WIyWlLk6GJQsqaUBKTNV-1" vertex="1">
          <mxGeometry x="380" y="260" width="280" height="60" as="geometry" />
        </mxCell>
        <mxCell id="HNseLsLBakEeqUfx-rle-79" style="edgeStyle=orthogonalEdgeStyle;rounded=0;orthogonalLoop=1;jettySize=auto;html=1;" edge="1" parent="WIyWlLk6GJQsqaUBKTNV-1" source="Aem0WX8BvzpRNGFWT9OV-11" target="HNseLsLBakEeqUfx-rle-78">
          <mxGeometry relative="1" as="geometry" />
        </mxCell>
        <mxCell id="Aem0WX8BvzpRNGFWT9OV-11" value="Play" style="rounded=1;whiteSpace=wrap;html=1;glass=0;strokeWidth=1;shadow=0;fillColor=#d5e8d4;strokeColor=#82b366;" parent="WIyWlLk6GJQsqaUBKTNV-1" vertex="1">
          <mxGeometry x="311" y="350" width="120" height="20" as="geometry" />
        </mxCell>
        <mxCell id="3Ym4WqY_hZjeNqFPl6Wv-31" value="OLD AttackHit" style="swimlane;whiteSpace=wrap;html=1;" parent="WIyWlLk6GJQsqaUBKTNV-1" vertex="1" collapsed="1">
          <mxGeometry x="850" y="260" width="140" height="30" as="geometry">
            <mxRectangle x="850" y="260" width="650" height="290" as="alternateBounds" />
          </mxGeometry>
        </mxCell>
        <mxCell id="lwHccidv2fWYTVkOevZk-40" value="" style="edgeStyle=orthogonalEdgeStyle;rounded=0;orthogonalLoop=1;jettySize=auto;html=1;exitX=0;exitY=0.5;exitDx=0;exitDy=0;entryX=0.5;entryY=0;entryDx=0;entryDy=0;" parent="3Ym4WqY_hZjeNqFPl6Wv-31" source="lwHccidv2fWYTVkOevZk-44" target="lwHccidv2fWYTVkOevZk-57" edge="1">
          <mxGeometry relative="1" as="geometry">
            <mxPoint x="345.5" y="105" as="sourcePoint" />
          </mxGeometry>
        </mxCell>
        <mxCell id="lwHccidv2fWYTVkOevZk-41" value="No" style="edgeLabel;html=1;align=center;verticalAlign=middle;resizable=0;points=[];" parent="lwHccidv2fWYTVkOevZk-40" vertex="1" connectable="0">
          <mxGeometry x="-0.0857" relative="1" as="geometry">
            <mxPoint as="offset" />
          </mxGeometry>
        </mxCell>
        <mxCell id="lwHccidv2fWYTVkOevZk-42" style="edgeStyle=orthogonalEdgeStyle;rounded=0;orthogonalLoop=1;jettySize=auto;html=1;entryX=0;entryY=0.5;entryDx=0;entryDy=0;" parent="3Ym4WqY_hZjeNqFPl6Wv-31" source="lwHccidv2fWYTVkOevZk-44" target="lwHccidv2fWYTVkOevZk-53" edge="1">
          <mxGeometry relative="1" as="geometry">
            <mxPoint x="509.5" y="160" as="targetPoint" />
          </mxGeometry>
        </mxCell>
        <mxCell id="lwHccidv2fWYTVkOevZk-43" value="Yes" style="edgeLabel;html=1;align=center;verticalAlign=middle;resizable=0;points=[];" parent="lwHccidv2fWYTVkOevZk-42" vertex="1" connectable="0">
          <mxGeometry x="-0.2889" relative="1" as="geometry">
            <mxPoint as="offset" />
          </mxGeometry>
        </mxCell>
        <mxCell id="lwHccidv2fWYTVkOevZk-44" value="&lt;br&gt;! IsAttacking&lt;br&gt;&amp;amp;&amp;amp;&lt;br&gt;! Attack&lt;div&gt;Range&lt;/div&gt;" style="rhombus;whiteSpace=wrap;html=1;shadow=0;fontFamily=Helvetica;fontSize=12;align=center;strokeWidth=1;spacing=6;spacingTop=-4;" parent="3Ym4WqY_hZjeNqFPl6Wv-31" vertex="1">
          <mxGeometry x="365.5" y="65" width="100" height="80" as="geometry" />
        </mxCell>
        <mxCell id="lwHccidv2fWYTVkOevZk-53" value="AttackCountDown" style="rounded=1;whiteSpace=wrap;html=1;fillColor=#fff2cc;strokeColor=#d6b656;" parent="3Ym4WqY_hZjeNqFPl6Wv-31" vertex="1">
          <mxGeometry x="509.5" y="95" width="120" height="20" as="geometry" />
        </mxCell>
        <mxCell id="ZE5Rv5s6aJjxz1UtuAFp-1" style="edgeStyle=orthogonalEdgeStyle;rounded=0;orthogonalLoop=1;jettySize=auto;html=1;" parent="3Ym4WqY_hZjeNqFPl6Wv-31" source="lwHccidv2fWYTVkOevZk-57" target="ZE5Rv5s6aJjxz1UtuAFp-0" edge="1">
          <mxGeometry relative="1" as="geometry" />
        </mxCell>
        <mxCell id="lwHccidv2fWYTVkOevZk-57" value="&lt;div&gt;UpdateAttack queue&lt;/div&gt;" style="rounded=0;whiteSpace=wrap;html=1;align=left;" parent="3Ym4WqY_hZjeNqFPl6Wv-31" vertex="1">
          <mxGeometry x="260.5" y="135" width="119" height="30" as="geometry" />
        </mxCell>
        <mxCell id="Aem0WX8BvzpRNGFWT9OV-18" style="edgeStyle=orthogonalEdgeStyle;rounded=0;orthogonalLoop=1;jettySize=auto;html=1;" parent="3Ym4WqY_hZjeNqFPl6Wv-31" source="Aem0WX8BvzpRNGFWT9OV-10" target="lwHccidv2fWYTVkOevZk-44" edge="1">
          <mxGeometry relative="1" as="geometry" />
        </mxCell>
        <mxCell id="Aem0WX8BvzpRNGFWT9OV-10" value="AttackHit" style="rounded=1;whiteSpace=wrap;html=1;glass=0;strokeWidth=1;shadow=0;fillColor=#d5e8d4;strokeColor=#82b366;" parent="3Ym4WqY_hZjeNqFPl6Wv-31" vertex="1">
          <mxGeometry x="111.5" y="30" width="120" height="20" as="geometry" />
        </mxCell>
        <mxCell id="Aem0WX8BvzpRNGFWT9OV-26" style="edgeStyle=orthogonalEdgeStyle;rounded=0;orthogonalLoop=1;jettySize=auto;html=1;entryX=0.5;entryY=1;entryDx=0;entryDy=0;exitX=0;exitY=0.5;exitDx=0;exitDy=0;" parent="3Ym4WqY_hZjeNqFPl6Wv-31" source="ZE5Rv5s6aJjxz1UtuAFp-0" target="Aem0WX8BvzpRNGFWT9OV-10" edge="1">
          <mxGeometry relative="1" as="geometry">
            <mxPoint x="219.5" y="270" as="sourcePoint" />
          </mxGeometry>
        </mxCell>
        <mxCell id="ZE5Rv5s6aJjxz1UtuAFp-3" value="No" style="edgeLabel;html=1;align=center;verticalAlign=middle;resizable=0;points=[];" parent="Aem0WX8BvzpRNGFWT9OV-26" vertex="1" connectable="0">
          <mxGeometry x="-0.9022" y="-1" relative="1" as="geometry">
            <mxPoint as="offset" />
          </mxGeometry>
        </mxCell>
        <mxCell id="ZE5Rv5s6aJjxz1UtuAFp-0" value="&lt;br&gt;queaue ended?" style="rhombus;whiteSpace=wrap;html=1;shadow=0;fontFamily=Helvetica;fontSize=12;align=center;strokeWidth=1;spacing=6;spacingTop=-4;" parent="3Ym4WqY_hZjeNqFPl6Wv-31" vertex="1">
          <mxGeometry x="270" y="210" width="100" height="80" as="geometry" />
        </mxCell>
        <mxCell id="ZE5Rv5s6aJjxz1UtuAFp-4" style="edgeStyle=orthogonalEdgeStyle;rounded=0;orthogonalLoop=1;jettySize=auto;html=1;exitX=1;exitY=0.5;exitDx=0;exitDy=0;entryX=0.442;entryY=0.05;entryDx=0;entryDy=0;entryPerimeter=0;" parent="3Ym4WqY_hZjeNqFPl6Wv-31" source="ZE5Rv5s6aJjxz1UtuAFp-0" target="lwHccidv2fWYTVkOevZk-53" edge="1">
          <mxGeometry relative="1" as="geometry">
            <Array as="points">
              <mxPoint x="639.5" y="250" />
              <mxPoint x="639.5" y="75" />
              <mxPoint x="562.5" y="75" />
            </Array>
          </mxGeometry>
        </mxCell>
        <mxCell id="ZE5Rv5s6aJjxz1UtuAFp-5" value="Yes" style="edgeLabel;html=1;align=center;verticalAlign=middle;resizable=0;points=[];" parent="ZE5Rv5s6aJjxz1UtuAFp-4" vertex="1" connectable="0">
          <mxGeometry x="-0.3821" relative="1" as="geometry">
            <mxPoint as="offset" />
          </mxGeometry>
        </mxCell>
        <mxCell id="3Ym4WqY_hZjeNqFPl6Wv-27" style="edgeStyle=orthogonalEdgeStyle;rounded=0;orthogonalLoop=1;jettySize=auto;html=1;exitX=0.5;exitY=1;exitDx=0;exitDy=0;" parent="3Ym4WqY_hZjeNqFPl6Wv-31" source="3Ym4WqY_hZjeNqFPl6Wv-23" target="3Ym4WqY_hZjeNqFPl6Wv-26" edge="1">
          <mxGeometry relative="1" as="geometry" />
        </mxCell>
        <mxCell id="3Ym4WqY_hZjeNqFPl6Wv-23" value="Enter" style="rounded=1;whiteSpace=wrap;html=1;glass=0;strokeWidth=1;shadow=0;fillColor=#d5e8d4;strokeColor=#82b366;" parent="3Ym4WqY_hZjeNqFPl6Wv-31" vertex="1">
          <mxGeometry x="50.5" y="30" width="39" height="20" as="geometry" />
        </mxCell>
        <mxCell id="3Ym4WqY_hZjeNqFPl6Wv-29" style="edgeStyle=orthogonalEdgeStyle;rounded=0;orthogonalLoop=1;jettySize=auto;html=1;exitX=0.75;exitY=0;exitDx=0;exitDy=0;entryX=0;entryY=0.5;entryDx=0;entryDy=0;" parent="3Ym4WqY_hZjeNqFPl6Wv-31" source="3Ym4WqY_hZjeNqFPl6Wv-26" target="Aem0WX8BvzpRNGFWT9OV-10" edge="1">
          <mxGeometry relative="1" as="geometry">
            <Array as="points">
              <mxPoint x="99.5" y="40" />
            </Array>
          </mxGeometry>
        </mxCell>
        <mxCell id="3Ym4WqY_hZjeNqFPl6Wv-26" value="&lt;div&gt;GetSequence&lt;/div&gt;" style="rounded=0;whiteSpace=wrap;html=1;align=left;" parent="3Ym4WqY_hZjeNqFPl6Wv-31" vertex="1">
          <mxGeometry x="10.5" y="65" width="119" height="30" as="geometry" />
        </mxCell>
        <mxCell id="3Ym4WqY_hZjeNqFPl6Wv-55" value="ODL AttackReposition" style="swimlane;whiteSpace=wrap;html=1;" parent="WIyWlLk6GJQsqaUBKTNV-1" vertex="1" collapsed="1">
          <mxGeometry x="1010" y="260" width="140" height="30" as="geometry">
            <mxRectangle x="1010" y="260" width="584" height="300" as="alternateBounds" />
          </mxGeometry>
        </mxCell>
        <mxCell id="3Ym4WqY_hZjeNqFPl6Wv-41" style="edgeStyle=orthogonalEdgeStyle;rounded=0;orthogonalLoop=1;jettySize=auto;html=1;exitX=1;exitY=0.5;exitDx=0;exitDy=0;entryX=0.5;entryY=0;entryDx=0;entryDy=0;" parent="3Ym4WqY_hZjeNqFPl6Wv-55" source="3Ym4WqY_hZjeNqFPl6Wv-35" target="3Ym4WqY_hZjeNqFPl6Wv-40" edge="1">
          <mxGeometry relative="1" as="geometry" />
        </mxCell>
        <mxCell id="3Ym4WqY_hZjeNqFPl6Wv-35" value="AttackReposition" style="rounded=1;whiteSpace=wrap;html=1;glass=0;strokeWidth=1;shadow=0;fillColor=#d5e8d4;strokeColor=#82b366;" parent="3Ym4WqY_hZjeNqFPl6Wv-55" vertex="1">
          <mxGeometry x="115" y="30" width="120" height="20" as="geometry" />
        </mxCell>
        <mxCell id="3Ym4WqY_hZjeNqFPl6Wv-36" style="edgeStyle=orthogonalEdgeStyle;rounded=0;orthogonalLoop=1;jettySize=auto;html=1;exitX=0.5;exitY=1;exitDx=0;exitDy=0;" parent="3Ym4WqY_hZjeNqFPl6Wv-55" source="3Ym4WqY_hZjeNqFPl6Wv-37" target="3Ym4WqY_hZjeNqFPl6Wv-39" edge="1">
          <mxGeometry relative="1" as="geometry" />
        </mxCell>
        <mxCell id="3Ym4WqY_hZjeNqFPl6Wv-37" value="Enter" style="rounded=1;whiteSpace=wrap;html=1;glass=0;strokeWidth=1;shadow=0;fillColor=#d5e8d4;strokeColor=#82b366;" parent="3Ym4WqY_hZjeNqFPl6Wv-55" vertex="1">
          <mxGeometry x="54" y="30" width="39" height="20" as="geometry" />
        </mxCell>
        <mxCell id="3Ym4WqY_hZjeNqFPl6Wv-38" style="edgeStyle=orthogonalEdgeStyle;rounded=0;orthogonalLoop=1;jettySize=auto;html=1;exitX=0.75;exitY=0;exitDx=0;exitDy=0;entryX=0;entryY=0.5;entryDx=0;entryDy=0;" parent="3Ym4WqY_hZjeNqFPl6Wv-55" source="3Ym4WqY_hZjeNqFPl6Wv-39" target="3Ym4WqY_hZjeNqFPl6Wv-35" edge="1">
          <mxGeometry relative="1" as="geometry">
            <Array as="points">
              <mxPoint x="103" y="40" />
            </Array>
          </mxGeometry>
        </mxCell>
        <mxCell id="3Ym4WqY_hZjeNqFPl6Wv-39" value="&lt;div&gt;CreatePath&lt;/div&gt;" style="rounded=0;whiteSpace=wrap;html=1;align=left;" parent="3Ym4WqY_hZjeNqFPl6Wv-55" vertex="1">
          <mxGeometry x="14" y="65" width="119" height="30" as="geometry" />
        </mxCell>
        <mxCell id="3Ym4WqY_hZjeNqFPl6Wv-42" style="edgeStyle=orthogonalEdgeStyle;rounded=0;orthogonalLoop=1;jettySize=auto;html=1;exitX=0;exitY=0.5;exitDx=0;exitDy=0;entryX=0.5;entryY=0;entryDx=0;entryDy=0;" parent="3Ym4WqY_hZjeNqFPl6Wv-55" source="3Ym4WqY_hZjeNqFPl6Wv-40" target="3Ym4WqY_hZjeNqFPl6Wv-45" edge="1">
          <mxGeometry relative="1" as="geometry" />
        </mxCell>
        <mxCell id="3Ym4WqY_hZjeNqFPl6Wv-43" value="No" style="edgeLabel;html=1;align=center;verticalAlign=middle;resizable=0;points=[];" parent="3Ym4WqY_hZjeNqFPl6Wv-42" vertex="1" connectable="0">
          <mxGeometry x="-0.7143" y="1" relative="1" as="geometry">
            <mxPoint as="offset" />
          </mxGeometry>
        </mxCell>
        <mxCell id="3Ym4WqY_hZjeNqFPl6Wv-44" style="edgeStyle=orthogonalEdgeStyle;rounded=0;orthogonalLoop=1;jettySize=auto;html=1;entryX=0.5;entryY=0;entryDx=0;entryDy=0;" parent="3Ym4WqY_hZjeNqFPl6Wv-55" source="3Ym4WqY_hZjeNqFPl6Wv-40" target="3Ym4WqY_hZjeNqFPl6Wv-49" edge="1">
          <mxGeometry relative="1" as="geometry">
            <mxPoint x="564" y="80" as="targetPoint" />
            <mxPoint x="384" y="50" as="sourcePoint" />
          </mxGeometry>
        </mxCell>
        <mxCell id="3Ym4WqY_hZjeNqFPl6Wv-40" value="&lt;br&gt;timer &amp;gt;0" style="rhombus;whiteSpace=wrap;html=1;shadow=0;fontFamily=Helvetica;fontSize=12;align=center;strokeWidth=1;spacing=6;spacingTop=-4;" parent="3Ym4WqY_hZjeNqFPl6Wv-55" vertex="1">
          <mxGeometry x="274" y="60" width="100" height="80" as="geometry" />
        </mxCell>
        <mxCell id="3Ym4WqY_hZjeNqFPl6Wv-45" value="AttackCountDown" style="rounded=1;whiteSpace=wrap;html=1;fillColor=#fff2cc;strokeColor=#d6b656;" parent="3Ym4WqY_hZjeNqFPl6Wv-55" vertex="1">
          <mxGeometry x="181.5" y="250" width="120" height="20" as="geometry" />
        </mxCell>
        <mxCell id="3Ym4WqY_hZjeNqFPl6Wv-47" style="edgeStyle=orthogonalEdgeStyle;rounded=0;orthogonalLoop=1;jettySize=auto;html=1;exitX=0;exitY=0.5;exitDx=0;exitDy=0;entryX=0.5;entryY=0;entryDx=0;entryDy=0;" parent="3Ym4WqY_hZjeNqFPl6Wv-55" source="3Ym4WqY_hZjeNqFPl6Wv-46" target="3Ym4WqY_hZjeNqFPl6Wv-45" edge="1">
          <mxGeometry relative="1" as="geometry" />
        </mxCell>
        <mxCell id="3Ym4WqY_hZjeNqFPl6Wv-48" value="No" style="edgeLabel;html=1;align=center;verticalAlign=middle;resizable=0;points=[];" parent="3Ym4WqY_hZjeNqFPl6Wv-47" vertex="1" connectable="0">
          <mxGeometry x="-0.8211" relative="1" as="geometry">
            <mxPoint as="offset" />
          </mxGeometry>
        </mxCell>
        <mxCell id="3Ym4WqY_hZjeNqFPl6Wv-51" style="edgeStyle=orthogonalEdgeStyle;rounded=0;orthogonalLoop=1;jettySize=auto;html=1;exitX=1;exitY=0.5;exitDx=0;exitDy=0;entryX=0.5;entryY=1;entryDx=0;entryDy=0;" parent="3Ym4WqY_hZjeNqFPl6Wv-55" source="3Ym4WqY_hZjeNqFPl6Wv-46" target="3Ym4WqY_hZjeNqFPl6Wv-35" edge="1">
          <mxGeometry relative="1" as="geometry">
            <Array as="points">
              <mxPoint x="564" y="230" />
              <mxPoint x="564" y="290" />
              <mxPoint x="175" y="290" />
            </Array>
          </mxGeometry>
        </mxCell>
        <mxCell id="3Ym4WqY_hZjeNqFPl6Wv-52" value="Yes" style="edgeLabel;html=1;align=center;verticalAlign=middle;resizable=0;points=[];" parent="3Ym4WqY_hZjeNqFPl6Wv-51" vertex="1" connectable="0">
          <mxGeometry x="-0.9662" y="-1" relative="1" as="geometry">
            <mxPoint x="1" as="offset" />
          </mxGeometry>
        </mxCell>
        <mxCell id="3Ym4WqY_hZjeNqFPl6Wv-46" value="&lt;br&gt;IsFollownPath" style="rhombus;whiteSpace=wrap;html=1;shadow=0;fontFamily=Helvetica;fontSize=12;align=center;strokeWidth=1;spacing=6;spacingTop=-4;" parent="3Ym4WqY_hZjeNqFPl6Wv-55" vertex="1">
          <mxGeometry x="431" y="190" width="100" height="80" as="geometry" />
        </mxCell>
        <mxCell id="3Ym4WqY_hZjeNqFPl6Wv-49" value="&lt;div&gt;IsFollowingPath&lt;/div&gt;" style="rounded=0;whiteSpace=wrap;html=1;align=left;" parent="3Ym4WqY_hZjeNqFPl6Wv-55" vertex="1">
          <mxGeometry x="375" y="120" width="119" height="30" as="geometry" />
        </mxCell>
        <mxCell id="3Ym4WqY_hZjeNqFPl6Wv-54" style="edgeStyle=orthogonalEdgeStyle;rounded=0;orthogonalLoop=1;jettySize=auto;html=1;exitX=0.5;exitY=1;exitDx=0;exitDy=0;entryX=0.5;entryY=0;entryDx=0;entryDy=0;" parent="3Ym4WqY_hZjeNqFPl6Wv-55" source="3Ym4WqY_hZjeNqFPl6Wv-53" target="3Ym4WqY_hZjeNqFPl6Wv-46" edge="1">
          <mxGeometry relative="1" as="geometry" />
        </mxCell>
        <mxCell id="3Ym4WqY_hZjeNqFPl6Wv-53" value="&lt;div&gt;Dequeue points&lt;br&gt;CalculateInput(&lt;b&gt;target&lt;/b&gt;)&lt;/div&gt;" style="rounded=0;whiteSpace=wrap;html=1;align=left;" parent="3Ym4WqY_hZjeNqFPl6Wv-55" vertex="1">
          <mxGeometry x="414" y="140" width="130" height="30" as="geometry" />
        </mxCell>
        <mxCell id="HNseLsLBakEeqUfx-rle-36" style="edgeStyle=orthogonalEdgeStyle;rounded=0;orthogonalLoop=1;jettySize=auto;html=1;entryX=0;entryY=0.5;entryDx=0;entryDy=0;" edge="1" parent="WIyWlLk6GJQsqaUBKTNV-1" source="HNseLsLBakEeqUfx-rle-38">
          <mxGeometry relative="1" as="geometry">
            <mxPoint x="920" y="460" as="targetPoint" />
          </mxGeometry>
        </mxCell>
        <mxCell id="HNseLsLBakEeqUfx-rle-73" style="edgeStyle=orthogonalEdgeStyle;rounded=0;orthogonalLoop=1;jettySize=auto;html=1;entryX=0;entryY=0.5;entryDx=0;entryDy=0;" edge="1" parent="WIyWlLk6GJQsqaUBKTNV-1" source="HNseLsLBakEeqUfx-rle-0" target="HNseLsLBakEeqUfx-rle-38">
          <mxGeometry relative="1" as="geometry" />
        </mxCell>
        <mxCell id="HNseLsLBakEeqUfx-rle-0" value="&lt;div style=&quot;line-height: 18px;&quot;&gt;PlaySubFSM&lt;span style=&quot;font-family: Menlo, Monaco, &amp;quot;Courier New&amp;quot;, monospace; white-space: pre;&quot;&gt;: &lt;br&gt;StateMachineBase&amp;lt;LobbyStates&amp;gt;&lt;/span&gt;&lt;/div&gt;" style="rounded=1;whiteSpace=wrap;html=1;fontSize=12;glass=0;strokeWidth=1;shadow=0;" vertex="1" parent="WIyWlLk6GJQsqaUBKTNV-1">
          <mxGeometry x="376" y="440" width="240" height="40" as="geometry" />
        </mxCell>
        <mxCell id="HNseLsLBakEeqUfx-rle-1" value="&lt;div&gt;{&amp;nbsp;&lt;span style=&quot;font-family: Menlo, Monaco, &amp;quot;Courier New&amp;quot;, monospace; white-space: pre;&quot;&gt;PlaySubStates&lt;/span&gt;.Preload, new PreloadSubState }&lt;br&gt;&lt;/div&gt;&lt;div&gt;{&amp;nbsp;&lt;span style=&quot;font-family: Menlo, Monaco, &amp;quot;Courier New&amp;quot;, monospace; white-space: pre;&quot;&gt;PlaySubStates&lt;/span&gt;.ReadNext, new ReadNextSubState }&lt;br&gt;&lt;/div&gt;&lt;div&gt;&lt;span style=&quot;background-color: initial;&quot;&gt;{&amp;nbsp;&lt;/span&gt;&lt;span style=&quot;background-color: initial; font-family: Menlo, Monaco, &amp;quot;Courier New&amp;quot;, monospace; white-space: pre;&quot;&gt;Play&lt;/span&gt;&lt;span style=&quot;background-color: initial; font-family: Menlo, Monaco, &amp;quot;Courier New&amp;quot;, monospace; white-space: pre;&quot;&gt;SubStates&lt;/span&gt;&lt;span style=&quot;background-color: initial;&quot;&gt;.DemonstrationWord, new PlaySubState }&lt;br&gt;&lt;/span&gt;&lt;div&gt;&lt;span style=&quot;background-color: initial;&quot;&gt;{&amp;nbsp;&lt;/span&gt;&lt;span style=&quot;background-color: initial; font-family: Menlo, Monaco, &amp;quot;Courier New&amp;quot;, monospace; white-space: pre;&quot;&gt;PlaySubStates&lt;/span&gt;&lt;span style=&quot;background-color: initial;&quot;&gt;.SelectWords, new MatchWordsSubState }&lt;/span&gt;&lt;span style=&quot;background-color: initial;&quot;&gt;&lt;br&gt;{&amp;nbsp;&lt;/span&gt;&lt;span style=&quot;background-color: initial; font-family: Menlo, Monaco, &amp;quot;Courier New&amp;quot;, monospace; white-space: pre;&quot;&gt;PlaySubStates&lt;/span&gt;&lt;span style=&quot;background-color: initial;&quot;&gt;.MatchWords, new MatchWordsSubState }&lt;/span&gt;&lt;br&gt;&lt;/div&gt;&lt;/div&gt;&lt;div&gt;&lt;span style=&quot;background-color: initial;&quot;&gt;&lt;br&gt;&lt;/span&gt;&lt;/div&gt;" style="rounded=0;whiteSpace=wrap;html=1;align=left;" vertex="1" parent="WIyWlLk6GJQsqaUBKTNV-1">
          <mxGeometry x="380" y="480" width="340" height="90" as="geometry" />
        </mxCell>
        <mxCell id="HNseLsLBakEeqUfx-rle-90" style="edgeStyle=orthogonalEdgeStyle;rounded=0;orthogonalLoop=1;jettySize=auto;html=1;" edge="1" parent="WIyWlLk6GJQsqaUBKTNV-1" source="HNseLsLBakEeqUfx-rle-2" target="WIyWlLk6GJQsqaUBKTNV-3">
          <mxGeometry relative="1" as="geometry" />
        </mxCell>
        <mxCell id="HNseLsLBakEeqUfx-rle-2" value="&lt;div&gt;Game&lt;/div&gt;" style="rounded=1;whiteSpace=wrap;html=1;glass=0;strokeWidth=1;shadow=0;fillColor=#d5e8d4;strokeColor=#82b366;" vertex="1" parent="WIyWlLk6GJQsqaUBKTNV-1">
          <mxGeometry x="70" y="10" width="120" height="20" as="geometry" />
        </mxCell>
        <mxCell id="HNseLsLBakEeqUfx-rle-68" value="MatchWords" style="swimlane;whiteSpace=wrap;html=1;startSize=23;" vertex="1" collapsed="1" parent="WIyWlLk6GJQsqaUBKTNV-1">
          <mxGeometry x="960" y="445" width="180" height="30" as="geometry">
            <mxRectangle x="940" y="390" width="660" height="400" as="alternateBounds" />
          </mxGeometry>
        </mxCell>
        <mxCell id="HNseLsLBakEeqUfx-rle-69" style="edgeStyle=orthogonalEdgeStyle;rounded=0;orthogonalLoop=1;jettySize=auto;html=1;exitX=1;exitY=0.75;exitDx=0;exitDy=0;" edge="1" parent="HNseLsLBakEeqUfx-rle-68" source="HNseLsLBakEeqUfx-rle-70">
          <mxGeometry relative="1" as="geometry">
            <Array as="points">
              <mxPoint x="210.5" y="45" />
            </Array>
            <mxPoint x="210.5" y="73.20000000000005" as="targetPoint" />
          </mxGeometry>
        </mxCell>
        <mxCell id="HNseLsLBakEeqUfx-rle-70" value="&lt;div&gt;LessonPreload&lt;/div&gt;" style="rounded=1;whiteSpace=wrap;html=1;glass=0;strokeWidth=1;shadow=0;fillColor=#d5e8d4;strokeColor=#82b366;" vertex="1" parent="HNseLsLBakEeqUfx-rle-68">
          <mxGeometry x="70.5" y="30" width="120" height="20" as="geometry" />
        </mxCell>
        <mxCell id="HNseLsLBakEeqUfx-rle-71" style="edgeStyle=orthogonalEdgeStyle;rounded=0;orthogonalLoop=1;jettySize=auto;html=1;exitX=1;exitY=0.5;exitDx=0;exitDy=0;" edge="1" parent="HNseLsLBakEeqUfx-rle-68" source="HNseLsLBakEeqUfx-rle-72">
          <mxGeometry relative="1" as="geometry">
            <mxPoint x="69.5" y="40" as="targetPoint" />
          </mxGeometry>
        </mxCell>
        <mxCell id="HNseLsLBakEeqUfx-rle-72" value="ReEnter" style="rounded=1;whiteSpace=wrap;html=1;glass=0;strokeWidth=1;shadow=0;fillColor=#d5e8d4;strokeColor=#82b366;" vertex="1" parent="HNseLsLBakEeqUfx-rle-68">
          <mxGeometry x="9.5" y="30" width="39" height="20" as="geometry" />
        </mxCell>
        <mxCell id="HNseLsLBakEeqUfx-rle-74" value="" style="edgeStyle=orthogonalEdgeStyle;rounded=0;orthogonalLoop=1;jettySize=auto;html=1;entryX=0;entryY=0.5;entryDx=0;entryDy=0;" edge="1" parent="WIyWlLk6GJQsqaUBKTNV-1" source="HNseLsLBakEeqUfx-rle-0" target="HNseLsLBakEeqUfx-rle-38">
          <mxGeometry relative="1" as="geometry">
            <mxPoint x="616" y="460" as="sourcePoint" />
            <mxPoint x="920" y="460" as="targetPoint" />
          </mxGeometry>
        </mxCell>
        <mxCell id="HNseLsLBakEeqUfx-rle-38" value="PlayLogicSubstate" style="swimlane;whiteSpace=wrap;html=1;" vertex="1" collapsed="1" parent="WIyWlLk6GJQsqaUBKTNV-1">
          <mxGeometry x="720" y="445" width="180" height="30" as="geometry">
            <mxRectangle x="720" y="445" width="660" height="400" as="alternateBounds" />
          </mxGeometry>
        </mxCell>
        <mxCell id="HNseLsLBakEeqUfx-rle-43" style="edgeStyle=orthogonalEdgeStyle;rounded=0;orthogonalLoop=1;jettySize=auto;html=1;exitX=1;exitY=0.75;exitDx=0;exitDy=0;" edge="1" parent="HNseLsLBakEeqUfx-rle-38" source="HNseLsLBakEeqUfx-rle-44">
          <mxGeometry relative="1" as="geometry">
            <Array as="points">
              <mxPoint x="210.5" y="45" />
            </Array>
            <mxPoint x="210.5" y="73.20000000000005" as="targetPoint" />
          </mxGeometry>
        </mxCell>
        <mxCell id="HNseLsLBakEeqUfx-rle-44" value="&lt;div&gt;LessonPreload&lt;/div&gt;" style="rounded=1;whiteSpace=wrap;html=1;glass=0;strokeWidth=1;shadow=0;fillColor=#d5e8d4;strokeColor=#82b366;" vertex="1" parent="HNseLsLBakEeqUfx-rle-38">
          <mxGeometry x="70.5" y="30" width="120" height="20" as="geometry" />
        </mxCell>
        <mxCell id="HNseLsLBakEeqUfx-rle-53" style="edgeStyle=orthogonalEdgeStyle;rounded=0;orthogonalLoop=1;jettySize=auto;html=1;exitX=1;exitY=0.5;exitDx=0;exitDy=0;" edge="1" parent="HNseLsLBakEeqUfx-rle-38" source="HNseLsLBakEeqUfx-rle-54">
          <mxGeometry relative="1" as="geometry">
            <mxPoint x="69.5" y="40" as="targetPoint" />
          </mxGeometry>
        </mxCell>
        <mxCell id="HNseLsLBakEeqUfx-rle-54" value="ReEnter" style="rounded=1;whiteSpace=wrap;html=1;glass=0;strokeWidth=1;shadow=0;fillColor=#d5e8d4;strokeColor=#82b366;" vertex="1" parent="HNseLsLBakEeqUfx-rle-38">
          <mxGeometry x="9.5" y="30" width="39" height="20" as="geometry" />
        </mxCell>
        <mxCell id="HNseLsLBakEeqUfx-rle-81" style="edgeStyle=orthogonalEdgeStyle;rounded=0;orthogonalLoop=1;jettySize=auto;html=1;exitX=1;exitY=0.5;exitDx=0;exitDy=0;" edge="1" parent="WIyWlLk6GJQsqaUBKTNV-1" source="HNseLsLBakEeqUfx-rle-78" target="HNseLsLBakEeqUfx-rle-0">
          <mxGeometry relative="1" as="geometry">
            <mxPoint x="500" y="430" as="targetPoint" />
          </mxGeometry>
        </mxCell>
        <mxCell id="HNseLsLBakEeqUfx-rle-78" value="&lt;div&gt;Preload&lt;/div&gt;" style="rounded=1;whiteSpace=wrap;html=1;glass=0;strokeWidth=1;shadow=0;" vertex="1" parent="WIyWlLk6GJQsqaUBKTNV-1">
          <mxGeometry x="311" y="390" width="120" height="20" as="geometry" />
        </mxCell>
        <mxCell id="HNseLsLBakEeqUfx-rle-82" value="SelectWord" style="swimlane;whiteSpace=wrap;html=1;startSize=23;" vertex="1" collapsed="1" parent="WIyWlLk6GJQsqaUBKTNV-1">
          <mxGeometry x="960" y="480" width="180" height="30" as="geometry">
            <mxRectangle x="940" y="390" width="660" height="400" as="alternateBounds" />
          </mxGeometry>
        </mxCell>
        <mxCell id="HNseLsLBakEeqUfx-rle-83" style="edgeStyle=orthogonalEdgeStyle;rounded=0;orthogonalLoop=1;jettySize=auto;html=1;exitX=1;exitY=0.75;exitDx=0;exitDy=0;" edge="1" parent="HNseLsLBakEeqUfx-rle-82" source="HNseLsLBakEeqUfx-rle-84">
          <mxGeometry relative="1" as="geometry">
            <Array as="points">
              <mxPoint x="210.5" y="45" />
            </Array>
            <mxPoint x="210.5" y="73.20000000000005" as="targetPoint" />
          </mxGeometry>
        </mxCell>
        <mxCell id="HNseLsLBakEeqUfx-rle-84" value="&lt;div&gt;LessonPreload&lt;/div&gt;" style="rounded=1;whiteSpace=wrap;html=1;glass=0;strokeWidth=1;shadow=0;fillColor=#d5e8d4;strokeColor=#82b366;" vertex="1" parent="HNseLsLBakEeqUfx-rle-82">
          <mxGeometry x="70.5" y="30" width="120" height="20" as="geometry" />
        </mxCell>
        <mxCell id="HNseLsLBakEeqUfx-rle-85" style="edgeStyle=orthogonalEdgeStyle;rounded=0;orthogonalLoop=1;jettySize=auto;html=1;exitX=1;exitY=0.5;exitDx=0;exitDy=0;" edge="1" parent="HNseLsLBakEeqUfx-rle-82" source="HNseLsLBakEeqUfx-rle-86">
          <mxGeometry relative="1" as="geometry">
            <mxPoint x="69.5" y="40" as="targetPoint" />
          </mxGeometry>
        </mxCell>
        <mxCell id="HNseLsLBakEeqUfx-rle-86" value="ReEnter" style="rounded=1;whiteSpace=wrap;html=1;glass=0;strokeWidth=1;shadow=0;fillColor=#d5e8d4;strokeColor=#82b366;" vertex="1" parent="HNseLsLBakEeqUfx-rle-82">
          <mxGeometry x="9.5" y="30" width="39" height="20" as="geometry" />
        </mxCell>
        <mxCell id="HNseLsLBakEeqUfx-rle-87" value="&lt;b&gt;&lt;font color=&quot;#ff3333&quot;&gt;Probably not SubStates&lt;/font&gt;&lt;/b&gt;" style="text;html=1;align=center;verticalAlign=middle;whiteSpace=wrap;rounded=0;" vertex="1" parent="WIyWlLk6GJQsqaUBKTNV-1">
          <mxGeometry x="414" y="190" width="240" height="30" as="geometry" />
        </mxCell>
        <mxCell id="HNseLsLBakEeqUfx-rle-91" style="edgeStyle=orthogonalEdgeStyle;rounded=0;orthogonalLoop=1;jettySize=auto;html=1;entryX=0.75;entryY=0;entryDx=0;entryDy=0;exitX=0.5;exitY=1;exitDx=0;exitDy=0;" edge="1" parent="WIyWlLk6GJQsqaUBKTNV-1" source="HNseLsLBakEeqUfx-rle-93" target="lwHccidv2fWYTVkOevZk-39">
          <mxGeometry relative="1" as="geometry" />
        </mxCell>
        <mxCell id="HNseLsLBakEeqUfx-rle-92" style="edgeStyle=orthogonalEdgeStyle;rounded=0;orthogonalLoop=1;jettySize=auto;html=1;entryX=0.5;entryY=0;entryDx=0;entryDy=0;" edge="1" parent="WIyWlLk6GJQsqaUBKTNV-1" source="HNseLsLBakEeqUfx-rle-88" target="HNseLsLBakEeqUfx-rle-93">
          <mxGeometry relative="1" as="geometry">
            <mxPoint x="620" y="110" as="targetPoint" />
            <Array as="points">
              <mxPoint x="621" y="50" />
              <mxPoint x="621" y="80" />
            </Array>
          </mxGeometry>
        </mxCell>
        <mxCell id="HNseLsLBakEeqUfx-rle-88" value="&lt;div&gt;Preload&lt;/div&gt;" style="rounded=1;whiteSpace=wrap;html=1;glass=0;strokeWidth=1;shadow=0;fillColor=#d5e8d4;strokeColor=#82b366;" vertex="1" parent="WIyWlLk6GJQsqaUBKTNV-1">
          <mxGeometry x="420" y="40" width="120" height="20" as="geometry" />
        </mxCell>
        <mxCell id="HNseLsLBakEeqUfx-rle-94" style="edgeStyle=orthogonalEdgeStyle;rounded=0;orthogonalLoop=1;jettySize=auto;html=1;entryX=0.5;entryY=1;entryDx=0;entryDy=0;" edge="1" parent="WIyWlLk6GJQsqaUBKTNV-1" source="HNseLsLBakEeqUfx-rle-93" target="HNseLsLBakEeqUfx-rle-95">
          <mxGeometry relative="1" as="geometry">
            <mxPoint x="360" y="50" as="targetPoint" />
          </mxGeometry>
        </mxCell>
        <mxCell id="HNseLsLBakEeqUfx-rle-93" value="No errors" style="rhombus;whiteSpace=wrap;html=1;" vertex="1" parent="WIyWlLk6GJQsqaUBKTNV-1">
          <mxGeometry x="580" y="60" width="80" height="80" as="geometry" />
        </mxCell>
        <mxCell id="HNseLsLBakEeqUfx-rle-96" style="edgeStyle=orthogonalEdgeStyle;rounded=0;orthogonalLoop=1;jettySize=auto;html=1;entryX=0;entryY=0.5;entryDx=0;entryDy=0;" edge="1" parent="WIyWlLk6GJQsqaUBKTNV-1" source="HNseLsLBakEeqUfx-rle-95" target="HNseLsLBakEeqUfx-rle-88">
          <mxGeometry relative="1" as="geometry" />
        </mxCell>
        <mxCell id="HNseLsLBakEeqUfx-rle-95" value="ReEnter" style="rounded=1;whiteSpace=wrap;html=1;glass=0;strokeWidth=1;shadow=0;fillColor=#d5e8d4;strokeColor=#82b366;" vertex="1" parent="WIyWlLk6GJQsqaUBKTNV-1">
          <mxGeometry x="351.5" y="40" width="39" height="20" as="geometry" />
        </mxCell>
      </root>
    </mxGraphModel>
  </diagram>
</mxfile>
